<svg xmlns="http://www.w3.org/2000/svg" xmlns:xlink="http://www.w3.org/1999/xlink" width="23" height="35" viewBox="0 0 23 35"><defs><style>.a{fill:url(#a);}.b{fill:url(#b);}</style><linearGradient id="a" x1="0.005" y1="0.501" x2="1.003" y2="0.501" gradientUnits="objectBoundingBox"><stop offset="0" stop-color="#ed1c24"/><stop offset="1" stop-color="#f7671e"/></linearGradient><linearGradient id="b" x1="0" y1="0.5" x2="1" y2="0.5" xlink:href="#a"/></defs><path class="a" d="M199.263,194.412a1.144,1.144,0,1,0,1.613-.121A1.15,1.15,0,0,0,199.263,194.412Z" transform="translate(-187.67 -177.536)"/><path class="b" d="M157.139,121.5a7.86,7.86,0,0,0-2.621-7.527h0c2.918-5.047.28-8.724-2.027-10.268s-5.434-1.023-8.772-1.249S138.459,99,138.459,99a8.924,8.924,0,0,0,.891,10.2,5.654,5.654,0,0,1-3.512-1.075c-.28,5.585,2.743,8.013,2.743,8.013h0a16.661,16.661,0,0,0-4.281,6.417c4.77,8.394,12.669,8.412,13.315,8.394h0l6.4,3.053,1.835-5.082-3.233-6.192h0l-1.066-2.1a9.5,9.5,0,0,1,1.5-.33A7.638,7.638,0,0,1,157.139,121.5Zm-18.994-10.337c4.875.191,5.959-1.249,5.959-1.249-4.823-1.11-4.84-7.024-4.84-7.024a10.436,10.436,0,0,0,4.84,1.682h3.46a5.479,5.479,0,0,1,5.015,2.185c2.307,2.74.245,6.088.245,6.088h0a10.193,10.193,0,0,0-8.545-.26,17.227,17.227,0,0,0-3.984,2.151h0A5.986,5.986,0,0,1,138.144,111.158Zm9.89,12.453-.315,5.359c-7.357-.191-11.131-6.643-11.131-6.643A13.385,13.385,0,0,1,142.076,116c-.384,4.6,3.722,5.151,5.295,5.186a5.427,5.427,0,0,0,.786-.035l-.122,2.463Zm-3.722-5.9a2.3,2.3,0,0,1-.157-1.734,2.707,2.707,0,0,1,2.6-1.995c.612,0,4.858.364,4.858.364s-1.87,2.9-2.831,4.006A2.689,2.689,0,0,1,144.313,117.714Zm6.291,3.729.664,1.544-1.765.312-.035-1.613Zm1.013,3.278,2.272,4.336-.909,2.5-3.512-1.682.28-4.856Zm-.3-6.573,2.062-2.428a4.571,4.571,0,0,1,1.7,2.792A19.5,19.5,0,0,0,151.32,118.148Z" transform="translate(-134.3 -99)"/></svg>